<svg width="52" height="33" viewBox="0 0 52 33" fill="none" xmlns="http://www.w3.org/2000/svg">
<path d="M49.25 0.833008H2.74999C2.06485 0.833008 1.40777 1.03933 0.923297 1.40659C0.438828 1.77385 0.166656 2.27196 0.166656 2.79134V30.208C0.166656 30.7274 0.438828 31.2255 0.923297 31.5928C1.40777 31.96 2.06485 32.1663 2.74999 32.1663H49.25C49.9351 32.1663 50.5922 31.96 51.0767 31.5928C51.5612 31.2255 51.8333 30.7274 51.8333 30.208V2.79134C51.8333 2.27196 51.5612 1.77385 51.0767 1.40659C50.5922 1.03933 49.9351 0.833008 49.25 0.833008ZM46.6667 22.3747C44.6112 22.3747 42.64 22.9936 41.1866 24.0954C39.7332 25.1972 38.9167 26.6915 38.9167 28.2497H13.0833C13.0833 26.6915 12.2668 25.1972 10.8134 24.0954C9.35999 22.9936 7.38875 22.3747 5.33332 22.3747V10.6247C7.38875 10.6247 9.35999 10.0057 10.8134 8.90393C12.2668 7.80215 13.0833 6.30782 13.0833 4.74967H38.9167C38.9167 6.30782 39.7332 7.80215 41.1866 8.90393C42.64 10.0057 44.6112 10.6247 46.6667 10.6247V22.3747Z" fill="black"/>
<path d="M26 8.66699C20.3012 8.66699 15.6667 12.1802 15.6667 16.5003C15.6667 20.8204 20.3012 24.3337 26 24.3337C31.6988 24.3337 36.3333 20.8204 36.3333 16.5003C36.3333 12.1802 31.6988 8.66699 26 8.66699ZM26 20.417C23.1506 20.417 20.8333 18.6604 20.8333 16.5003C20.8333 14.3403 23.1506 12.5837 26 12.5837C28.8494 12.5837 31.1667 14.3403 31.1667 16.5003C31.1667 18.6604 28.8494 20.417 26 20.417Z" fill="black"/>
</svg>
