<svg width="42" height="40" viewBox="0 0 42 40" fill="none" xmlns="http://www.w3.org/2000/svg">
<path d="M40.5959 8.67905L21.8459 0.345713C21.5793 0.227234 21.2908 0.166016 20.999 0.166016C20.7073 0.166016 20.4188 0.227234 20.1522 0.345713L1.40216 8.67905C1.3605 8.6978 1.33133 8.72905 1.28966 8.75196C1.23133 8.78113 1.16883 8.79988 1.11466 8.8353C1.06883 8.86655 1.03341 8.90613 0.989665 8.93946C0.837379 9.05264 0.703808 9.18902 0.593831 9.34363C0.552165 9.40197 0.508415 9.45405 0.470915 9.51238C0.408908 9.62248 0.355956 9.73744 0.312581 9.85613C0.293831 9.91238 0.264665 9.96446 0.247998 10.0207C0.195676 10.2037 0.168345 10.3929 0.166748 10.5832V31.4165C0.166748 32.2416 0.650082 32.9853 1.40425 33.3207L20.1542 41.654C20.4251 41.7749 20.7126 41.8332 21.0001 41.8332C21.2902 41.8258 21.5755 41.7577 21.8376 41.6332L21.8459 41.654L40.5959 33.3207C40.9645 33.1573 41.2776 32.8903 41.4973 32.5523C41.717 32.2143 41.8337 31.8197 41.8334 31.4165V10.5832C41.8337 10.1801 41.717 9.78551 41.4973 9.44747C41.2776 9.10944 40.9645 8.84249 40.5959 8.67905ZM21.0001 4.53113L34.6209 10.5832L21.0001 16.6353L18.2751 15.4249L7.38133 10.5832L21.0001 4.53113ZM4.33342 30.0645V13.7895L18.9167 20.2707V36.5436L4.33342 30.0645ZM23.0834 36.5436V20.2707L37.6668 13.7895V30.0645L23.0834 36.5436Z" fill="black"/>
</svg>
