<svg width="53" height="38" viewBox="0 0 53 38" fill="none" xmlns="http://www.w3.org/2000/svg">
<g id="lock">
<path id="Vector" d="M26.4992 26.9183C27.6706 26.9183 28.794 26.5847 29.6222 25.9908C30.4505 25.3969 30.9159 24.5915 30.9159 23.7516C30.9159 21.9941 28.9284 20.585 26.4992 20.585C25.3278 20.585 24.2044 20.9186 23.3761 21.5125C22.5478 22.1063 22.0825 22.9118 22.0825 23.7516C22.0825 24.5915 22.5478 25.3969 23.3761 25.9908C24.2044 26.5847 25.3278 26.9183 26.4992 26.9183ZM39.7492 12.6683C40.9206 12.6683 42.044 13.0019 42.8722 13.5958C43.7005 14.1897 44.1659 14.9951 44.1659 15.835V31.6683C44.1659 32.5081 43.7005 33.3136 42.8722 33.9075C42.044 34.5013 40.9206 34.835 39.7492 34.835H13.2492C12.0778 34.835 10.9544 34.5013 10.1261 33.9075C9.29785 33.3136 8.83252 32.5081 8.83252 31.6683V15.835C8.83252 14.0775 10.82 12.6683 13.2492 12.6683H15.4575V9.50163C15.4575 7.402 16.6208 5.38836 18.6915 3.9037C20.7623 2.41904 23.5708 1.58496 26.4992 1.58496C27.9492 1.58496 29.385 1.78973 30.7246 2.18758C32.0643 2.58543 33.2815 3.16857 34.3068 3.9037C35.3321 4.63883 36.1455 5.51156 36.7004 6.47205C37.2553 7.43254 37.5409 8.462 37.5409 9.50163V12.6683H39.7492ZM26.4992 4.75163C24.7421 4.75163 23.057 5.25207 21.8146 6.14287C20.5722 7.03367 19.8742 8.24185 19.8742 9.50163V12.6683H33.1242V9.50163C33.1242 8.24185 32.4262 7.03367 31.1838 6.14287C29.9413 5.25207 28.2562 4.75163 26.4992 4.75163Z" fill="black"/>
</g>
</svg>
