<svg width="39" height="34" viewBox="0 0 39 34" fill="none" xmlns="http://www.w3.org/2000/svg">
<g id="comment-question-outline">
<path id="Vector" d="M6.49976 2.83105C5.6378 2.83105 4.81115 3.12957 4.20166 3.66092C3.59217 4.19227 3.24976 4.91294 3.24976 5.66439V22.6644C3.24976 23.4158 3.59217 24.1365 4.20166 24.6679C4.81115 25.1992 5.6378 25.4977 6.49976 25.4977H12.9998V29.7477C12.9998 30.1234 13.171 30.4838 13.4757 30.7495C13.7805 31.0151 14.1938 31.1644 14.6248 31.1644H15.4373C15.8435 31.1644 16.2498 31.0227 16.5748 30.7536L22.5873 25.4977H32.4998C33.3617 25.4977 34.1884 25.1992 34.7979 24.6679C35.4073 24.1365 35.7498 23.4158 35.7498 22.6644V5.66439C35.7498 4.09189 34.2873 2.83105 32.4998 2.83105H6.49976ZM6.49976 5.66439H32.4998V22.6644H21.2548L16.2498 27.0277V22.6644H6.49976V5.66439ZM19.8085 7.78939C18.3623 7.78939 17.2085 8.04439 16.331 8.55439C15.4373 9.06439 14.9823 9.91439 15.0635 10.8919C0.341006 10.8919 10.676 10.8919 18.2648 10.8919C18.2648 10.4952 18.4273 10.1977 18.6873 9.99939C19.0123 9.80105 19.3698 9.70189 19.8085 9.70189C20.3123 9.70189 20.751 9.81522 21.0435 10.0702C21.336 10.3111 21.4823 10.6227 21.4823 11.0477C21.4823 11.4444 21.3523 11.7986 21.1248 12.0961C20.8485 12.4077 20.5073 12.6627 20.0848 12.8611C19.2398 13.3144 18.6873 13.7111 18.346 14.0511C18.0373 14.3911 17.8748 14.8727 17.8748 15.5811H21.1248C21.1248 15.1844 21.206 14.8727 21.3523 14.6177C21.4985 14.3769 21.7748 14.1644 22.1973 13.9519C22.9448 13.6544 23.5623 13.2577 24.0335 12.7477C24.5048 12.2236 24.7485 11.6711 24.7485 11.0477C24.7485 10.0561 24.3098 9.26272 23.4323 8.66772C22.5548 8.08689 21.336 7.78939 19.8085 7.78939ZM17.8748 16.9977V19.8311H21.1248V16.9977H17.8748Z" fill="black"/>
</g>
</svg>
