<svg width="9" height="10" viewBox="0 0 9 10" fill="none" xmlns="http://www.w3.org/2000/svg">
<path id="Vector" d="M4.08333 4.35417C3.69656 4.35417 3.32563 4.23344 3.05214 4.01856C2.77865 3.80367 2.625 3.51223 2.625 3.20833C2.625 2.90444 2.77865 2.61299 3.05214 2.39811C3.32563 2.18322 3.69656 2.0625 4.08333 2.0625C4.47011 2.0625 4.84104 2.18322 5.11453 2.39811C5.38802 2.61299 5.54167 2.90444 5.54167 3.20833C5.54167 3.35881 5.50395 3.50781 5.43066 3.64682C5.35737 3.78584 5.24995 3.91216 5.11453 4.01856C4.97911 4.12496 4.81835 4.20936 4.64141 4.26694C4.46448 4.32453 4.27484 4.35417 4.08333 4.35417ZM4.08333 0C3.00037 0 1.96175 0.33802 1.19598 0.939699C0.430207 1.54138 0 2.35743 0 3.20833C0 5.61458 4.08333 9.16667 4.08333 9.16667C4.08333 9.16667 8.16667 5.61458 8.16667 3.20833C8.16667 2.35743 7.73646 1.54138 6.97069 0.939699C6.20491 0.33802 5.1663 0 4.08333 0Z" fill="white"/>
</svg>
